# xmcd
#
# Track frame offsets: 
#        150
#        14367
#        27990
#        45232
#        61162
#        74925
#        86695
#        102005
#        116767
#        132935
#
# Disc length: 1916 seconds
#
# Revision: 3
# Processed by: cddbd v1.5.2PL0 Copyright (c) Steve Scherf et al.
# Submitted via: ExactAudioCopy v0.99pb4
#
DISCID=84077a0a
DTITLE=Dolly Parton - Heartbreaker
DYEAR=1978
DGENRE=Country
TTITLE0=I Really Got the Feeling
TTITLE1=It's Too Late to Love Me Now
TTITLE2=We're Through Forever
TTITLE3=Sure Thing
TTITLE4=With You Gone
TTITLE5=Baby I'm Burnin'
TTITLE6=Nickels and Dimes
TTITLE7=The Man
TTITLE8=Heartbreaker
TTITLE9=I Wanna Fall in Love
EXTD=
EXTT0=
EXTT1=
EXTT2=
EXTT3=
EXTT4=
EXTT5=
EXTT6=
EXTT7=
EXTT8=
EXTT9=
PLAYORDER=
